<svg data-v-423bf9ae="" xmlns="http://www.w3.org/2000/svg" viewBox="0 0 334 112" class="iconLeft"><!----><!----><!----><g data-v-423bf9ae="" id="ad337e56-d0fa-4230-aca9-154f83f9633e" fill="#ffffff" transform="matrix(5.934717742604922,0,0,5.934717742604922,84.8269026132042,-0.6165470883450794)"><path d="M3.07 10.72L4.68 10.72L5.64 14.35L7.81 14.35L6.64 10.49C8.19 9.97 9.03 8.57 9.03 7.10C9.03 5.50 7.94 4.58 6.08 4.58L2.27 4.58L0.31 14.35L2.34 14.35ZM3.42 8.99L3.93 6.37L6.03 6.37C6.65 6.37 6.93 6.71 6.93 7.13C6.93 7.28 6.86 7.55 6.78 7.97C6.64 8.65 6.13 8.99 5.50 8.99ZM15.90 14.35L16.27 12.56L11.87 12.56L12.32 10.30L16.07 10.30L16.44 8.51L12.68 8.51L13.12 6.37L17.36 6.37L17.72 4.58L11.44 4.58L9.48 14.35ZM22.08 14.35L27.13 4.58L24.98 4.58L22.97 8.68L21.39 12.19L21.29 12.19L21.04 8.34L20.69 4.58L18.65 4.58L19.80 14.35ZM30.27 14.52C33.19 14.52 35.31 11.75 35.31 8.37C35.31 5.60 33.67 4.41 31.79 4.41C28.87 4.41 26.75 7.18 26.75 10.56C26.75 13.33 28.39 14.52 30.27 14.52ZM30.41 12.71C29.34 12.71 28.81 12.10 28.81 10.92C28.81 10.72 28.83 10.47 28.88 10.19L29.18 8.72C29.50 7.14 30.35 6.22 31.65 6.22C32.72 6.22 33.25 6.83 33.25 8.01C33.25 8.20 33.24 8.44 33.18 8.74L32.89 10.21C32.56 11.79 31.71 12.71 30.41 12.71ZM41.61 14.35L41.97 12.56L38.39 12.56L39.98 4.58L37.95 4.58L35.99 14.35Z"></path></g><!----><g data-v-423bf9ae="" id="238b1c20-82c7-421d-90f2-7034cdecf1e8" transform="matrix(1.1111111111111112,0,0,1.1111111111111112,0.6666666666666643,0.44444444444444287)" stroke="none" fill="#D8C93B"><path d="M52 38v14c0 9.757-8.242 18-18 18h-8c-9.757 0-18-8.243-18-18V38H0v14c0 14.094 11.906 26 26 26v14H9v8h42v-8H34V78c14.094 0 26-11.906 26-26V38h-8z"></path><path d="M26 64h8c5.714 0 10.788-4.483 11.804-10H33.917v-4H46v-4H33.917v-4H46v-4H33.917v-4H46v-4H33.917v-4H46v-4H33.917v-4H46v-4H33.917v-4h11.887C44.788 4.483 39.714 0 34 0h-8c-6.393 0-12 5.607-12 12v40c0 6.393 5.607 12 12 12z"></path></g><!----></svg>